<svg width="20" height="30" viewBox="0 0 20 30" fill="none" xmlns="http://www.w3.org/2000/svg">
<path d="M10 22.5V15M12.8125 22.5V21.0938C12.8125 19.3945 14.6606 17.7873 15.8594 16.6406C17.5492 15.0252 18.4375 12.8549 18.4375 10.3125C18.4375 5.625 14.7034 1.875 10 1.875C8.89114 1.87191 7.79257 2.08804 6.76748 2.51097C5.7424 2.9339 4.81103 3.55528 4.02692 4.33939C3.24281 5.1235 2.62143 6.05487 2.1985 7.07996C1.77557 8.10504 1.55944 9.20361 1.56253 10.3125C1.56253 12.7641 2.4889 15.0815 4.14066 16.6406C5.33304 17.7662 7.18753 19.377 7.18753 21.0938V22.5H12.8125ZM8.12503 28.125H11.875H8.12503ZM7.18753 25.3125H12.8125H7.18753Z" stroke="#FBF5E9" stroke-width="2" stroke-linecap="round" stroke-linejoin="round"/>
</svg>
